<?xml version="1.0" encoding="UTF-8"?>
<svg xmlns="http://www.w3.org/2000/svg" width="100" height="100" viewBox="0 0 100 100">
    <path d="M 24 10 H 19 C 19 10, 17 10, 17 12 V 88 C 17 88, 17 90, 19 90 H 24 Z" stroke="black" stroke-width="2" fill="#ffffff" />
    <path d="M 24 10 H 71 C 71 10, 82 10, 82 20 V 80 C 82 80, 82 90, 71 90 H 24 Z" stroke="black" stroke-width="2" fill="#D2B48C" />
    <path d="M 61 43 H 82 C 82 43, 83 43, 83 45 V 55 C 83 55, 83 57, 82 57 H 61 A 5 5, 0, 0 1, 61 43 Z" stroke="black" stroke-width="2" fill="#ffffff" />
    <circle cx="61" cy="50" r="3" stroke="black" stroke-width="2" fill="#E4A7A1" />
</svg>
